<?xml version="1.0" encoding="UTF-8" standalone="no"?>
<!-- Created with Inkscape (http://www.inkscape.org/) -->

<svg
   xmlns:dc="http://purl.org/dc/elements/1.1/"
   xmlns:cc="http://creativecommons.org/ns#"
   xmlns:rdf="http://www.w3.org/1999/02/22-rdf-syntax-ns#"
   xmlns:svg="http://www.w3.org/2000/svg"
   xmlns="http://www.w3.org/2000/svg"
   xmlns:sodipodi="http://sodipodi.sourceforge.net/DTD/sodipodi-0.dtd"
   xmlns:inkscape="http://www.inkscape.org/namespaces/inkscape"
   width="744.09448819"
   height="1052.3622047"
   id="svg2"
   version="1.1"
   inkscape:version="0.48.4 r9939"
   sodipodi:docname="New document 1">
  <defs
     id="defs4" />
  <sodipodi:namedview
     id="base"
     pagecolor="#ffffff"
     bordercolor="#666666"
     borderopacity="1.0"
     inkscape:pageopacity="0.0"
     inkscape:pageshadow="2"
     inkscape:zoom="0.55048947"
     inkscape:cx="234.27591"
     inkscape:cy="520"
     inkscape:document-units="px"
     inkscape:current-layer="layer1"
     showgrid="false"
     inkscape:window-width="1920"
     inkscape:window-height="1028"
     inkscape:window-x="-4"
     inkscape:window-y="-4"
     inkscape:window-maximized="1" />
  <metadata
     id="metadata7">
    <rdf:RDF>
      <cc:Work
         rdf:about="">
        <dc:format>image/svg+xml</dc:format>
        <dc:type
           rdf:resource="http://purl.org/dc/dcmitype/StillImage" />
        <dc:title></dc:title>
      </cc:Work>
    </rdf:RDF>
  </metadata>
  <g
     inkscape:label="Layer 1"
     inkscape:groupmode="layer"
     id="layer1">
    <rect
       style="fill:none;stroke:#000000;stroke-width:2.29892278;stroke-linecap:butt;stroke-miterlimit:4;stroke-opacity:1;stroke-dasharray:none"
       id="rect2985"
       width="280.34607"
       height="397.48892"
       x="197.03448"
       y="99.722153" />
    <rect
       style="fill:none;stroke:#000000;stroke-width:2.30601835;stroke-linecap:butt;stroke-miterlimit:4;stroke-opacity:1;stroke-dasharray:none"
       id="rect2987"
       width="97.481834"
       height="134.62471"
       x="334.18091"
       y="236.86858" />
    <path
       sodipodi:type="arc"
       style="fill:none;stroke:#000000;stroke-width:2.64499998;stroke-linecap:butt;stroke-miterlimit:4;stroke-opacity:1;stroke-dasharray:none"
       id="path2989"
       sodipodi:cx="-522.85712"
       sodipodi:cy="486.64789"
       sodipodi:rx="34.285713"
       sodipodi:ry="60"
       d="m -488.5714,486.64789 a 34.285713,60 0 1 1 -68.57143,0 34.285713,60 0 1 1 68.57143,0 z"
       transform="translate(802.92182,-292.467)" />
    <path
       d="m -488.5714,486.64789 a 34.285713,60 0 1 1 -68.57143,0 34.285713,60 0 1 1 68.57143,0 z"
       sodipodi:ry="60"
       sodipodi:rx="34.285713"
       sodipodi:cy="486.64789"
       sodipodi:cx="-522.85712"
       id="path2995"
       style="fill:none;stroke:#72999c;stroke-width:2.64499998;stroke-linecap:butt;stroke-miterlimit:4;stroke-opacity:1;stroke-dasharray:none"
       sodipodi:type="arc"
       transform="matrix(0.70815204,-0.35281559,0.70815204,0.35281559,262.94771,429.46472)" />
    <g
       id="g3806"
       style="stroke:#3b7784;stroke-opacity:1"
       transform="translate(74.479173,265.21852)">
      <rect
         y="601.97284"
         x="-560.48108"
         height="314.48337"
         width="221.80286"
         id="rect3008"
         style="fill:none;stroke:#3b7784;stroke-width:1.81875372;stroke-linecap:butt;stroke-miterlimit:4;stroke-opacity:1;stroke-dasharray:none"
         transform="matrix(0.89506353,-0.44593865,0.89506353,0.44593865,0,0)" />
      <rect
         transform="matrix(0.89506353,-0.44593865,0.89506353,0.44593865,0,0)"
         style="fill:none;stroke:#3b7784;stroke-width:1.81875372;stroke-linecap:butt;stroke-miterlimit:4;stroke-opacity:1;stroke-dasharray:none"
         id="rect3778"
         width="221.80286"
         height="314.48337"
         x="-562.72351"
         y="604.21527" />
      <rect
         y="606.4577"
         x="-564.96594"
         height="314.48337"
         width="221.80286"
         id="rect3780"
         style="fill:none;stroke:#3b7784;stroke-width:1.81875372;stroke-linecap:butt;stroke-miterlimit:4;stroke-opacity:1;stroke-dasharray:none"
         transform="matrix(0.89506353,-0.44593865,0.89506353,0.44593865,0,0)" />
      <rect
         transform="matrix(0.89506353,-0.44593865,0.89506353,0.44593865,0,0)"
         style="fill:none;stroke:#3b7784;stroke-width:1.81875372;stroke-linecap:butt;stroke-miterlimit:4;stroke-opacity:1;stroke-dasharray:none"
         id="rect3782"
         width="221.80286"
         height="314.48337"
         x="-567.20837"
         y="608.70013" />
      <rect
         y="610.94257"
         x="-569.45081"
         height="314.48337"
         width="221.80286"
         id="rect3784"
         style="fill:none;stroke:#3b7784;stroke-width:1.81875372;stroke-linecap:butt;stroke-miterlimit:4;stroke-opacity:1;stroke-dasharray:none"
         transform="matrix(0.89506353,-0.44593865,0.89506353,0.44593865,0,0)" />
      <rect
         transform="matrix(0.89506353,-0.44593865,0.89506353,0.44593865,0,0)"
         style="fill:none;stroke:#3b7784;stroke-width:1.81875372;stroke-linecap:butt;stroke-miterlimit:4;stroke-opacity:1;stroke-dasharray:none"
         id="rect3786"
         width="221.80286"
         height="314.48337"
         x="-571.69324"
         y="613.185" />
      <rect
         y="615.42743"
         x="-573.93567"
         height="314.48337"
         width="221.80286"
         id="rect3788"
         style="fill:none;stroke:#3b7784;stroke-width:1.81875372;stroke-linecap:butt;stroke-miterlimit:4;stroke-opacity:1;stroke-dasharray:none"
         transform="matrix(0.89506353,-0.44593865,0.89506353,0.44593865,0,0)" />
      <rect
         transform="matrix(0.89506353,-0.44593865,0.89506353,0.44593865,0,0)"
         style="fill:none;stroke:#3b7784;stroke-width:1.81875372;stroke-linecap:butt;stroke-miterlimit:4;stroke-opacity:1;stroke-dasharray:none"
         id="rect3790"
         width="221.80286"
         height="314.48337"
         x="-576.1781"
         y="617.66986" />
      <rect
         y="619.91229"
         x="-578.42053"
         height="314.48337"
         width="221.80286"
         id="rect3792"
         style="fill:none;stroke:#3b7784;stroke-width:1.81875372;stroke-linecap:butt;stroke-miterlimit:4;stroke-opacity:1;stroke-dasharray:none"
         transform="matrix(0.89506353,-0.44593865,0.89506353,0.44593865,0,0)" />
      <rect
         transform="matrix(0.89506353,-0.44593865,0.89506353,0.44593865,0,0)"
         style="fill:none;stroke:#3b7784;stroke-width:1.81875372;stroke-linecap:butt;stroke-miterlimit:4;stroke-opacity:1;stroke-dasharray:none"
         id="rect3794"
         width="221.80286"
         height="314.48337"
         x="-580.66296"
         y="622.15472" />
      <rect
         y="624.39716"
         x="-582.9054"
         height="314.48337"
         width="221.80286"
         id="rect3796"
         style="fill:none;stroke:#3b7784;stroke-width:1.81875372;stroke-linecap:butt;stroke-miterlimit:4;stroke-opacity:1;stroke-dasharray:none"
         transform="matrix(0.89506353,-0.44593865,0.89506353,0.44593865,0,0)" />
      <rect
         transform="matrix(0.89506353,-0.44593865,0.89506353,0.44593865,0,0)"
         style="fill:none;stroke:#3b7784;stroke-width:1.81875372;stroke-linecap:butt;stroke-miterlimit:4;stroke-opacity:1;stroke-dasharray:none"
         id="rect3798"
         width="221.80286"
         height="314.48337"
         x="-585.14783"
         y="626.63959" />
      <rect
         y="628.88202"
         x="-587.39026"
         height="314.48337"
         width="221.80286"
         id="rect3800"
         style="fill:none;stroke:#3b7784;stroke-width:1.81875372;stroke-linecap:butt;stroke-miterlimit:4;stroke-opacity:1;stroke-dasharray:none"
         transform="matrix(0.89506353,-0.44593865,0.89506353,0.44593865,0,0)" />
      <rect
         transform="matrix(0.89506353,-0.44593865,0.89506353,0.44593865,0,0)"
         style="fill:none;stroke:#3b7784;stroke-width:1.81875372;stroke-linecap:butt;stroke-miterlimit:4;stroke-opacity:1;stroke-dasharray:none"
         id="rect3802"
         width="221.80286"
         height="314.48337"
         x="-589.63269"
         y="631.12445" />
      <rect
         y="633.36688"
         x="-591.87512"
         height="314.48337"
         width="221.80286"
         id="rect3804"
         style="fill:none;stroke:#3b7784;stroke-width:1.81875372;stroke-linecap:butt;stroke-miterlimit:4;stroke-opacity:1;stroke-dasharray:none"
         transform="matrix(0.89506353,-0.44593865,0.89506353,0.44593865,0,0)" />
    </g>
    <path
       d="m -488.5714,486.64789 a 34.285713,60 0 1 1 -68.57143,0 34.285713,60 0 1 1 68.57143,0 z"
       sodipodi:ry="60"
       sodipodi:rx="34.285713"
       sodipodi:cy="486.64789"
       sodipodi:cx="-522.85712"
       id="path3829"
       style="fill:none;stroke:#72999c;stroke-width:2.64499998;stroke-linecap:butt;stroke-miterlimit:4;stroke-opacity:1;stroke-dasharray:none"
       sodipodi:type="arc"
       transform="matrix(0.70815204,-0.35281559,0.70815204,0.35281559,262.94771,431.46472)" />
    <path
       transform="matrix(0.70815204,-0.35281559,0.70815204,0.35281559,262.94771,433.46472)"
       sodipodi:type="arc"
       style="fill:none;stroke:#72999c;stroke-width:2.64499998;stroke-linecap:butt;stroke-miterlimit:4;stroke-opacity:1;stroke-dasharray:none"
       id="path3831"
       sodipodi:cx="-522.85712"
       sodipodi:cy="486.64789"
       sodipodi:rx="34.285713"
       sodipodi:ry="60"
       d="m -488.5714,486.64789 a 34.285713,60 0 1 1 -68.57143,0 34.285713,60 0 1 1 68.57143,0 z" />
    <path
       d="m -488.5714,486.64789 a 34.285713,60 0 1 1 -68.57143,0 34.285713,60 0 1 1 68.57143,0 z"
       sodipodi:ry="60"
       sodipodi:rx="34.285713"
       sodipodi:cy="486.64789"
       sodipodi:cx="-522.85712"
       id="path3833"
       style="fill:none;stroke:#72999c;stroke-width:2.64499998;stroke-linecap:butt;stroke-miterlimit:4;stroke-opacity:1;stroke-dasharray:none"
       sodipodi:type="arc"
       transform="matrix(0.70815204,-0.35281559,0.70815204,0.35281559,262.94771,435.46472)" />
    <path
       transform="matrix(0.70815204,-0.35281559,0.70815204,0.35281559,262.94771,435.46472)"
       sodipodi:type="arc"
       style="fill:#c1d2db;fill-opacity:1;stroke:none"
       id="path3835"
       sodipodi:cx="-522.85712"
       sodipodi:cy="486.64789"
       sodipodi:rx="34.285713"
       sodipodi:ry="60"
       d="m -488.5714,486.64789 a 34.285713,60 0 1 1 -68.57143,0 34.285713,60 0 1 1 68.57143,0 z" />
    <rect
       transform="matrix(0.89506353,-0.44593865,0.89506353,0.44593865,0,0)"
       style="fill:none;stroke:#3b7784;stroke-width:1.82446444;stroke-linecap:butt;stroke-miterlimit:4;stroke-opacity:1;stroke-dasharray:none"
       id="rect3841"
       width="77.125206"
       height="106.51173"
       x="-707.73981"
       y="1049.4563" />
    <rect
       y="1051.6987"
       x="-709.98224"
       height="106.51173"
       width="77.125206"
       id="rect3843"
       style="fill:none;stroke:#3b7784;stroke-width:1.82446444;stroke-linecap:butt;stroke-miterlimit:4;stroke-opacity:1;stroke-dasharray:none"
       transform="matrix(0.89506353,-0.44593865,0.89506353,0.44593865,0,0)" />
    <rect
       transform="matrix(0.89506353,-0.44593865,0.89506353,0.44593865,0,0)"
       style="fill:none;stroke:#3b7784;stroke-width:1.82446444;stroke-linecap:butt;stroke-miterlimit:4;stroke-opacity:1;stroke-dasharray:none"
       id="rect3845"
       width="77.125206"
       height="106.51173"
       x="-712.22473"
       y="1053.9412" />
    <rect
       y="1056.1836"
       x="-714.46716"
       height="106.51173"
       width="77.125206"
       id="rect3847"
       style="fill:none;stroke:#3b7784;stroke-width:1.82446444;stroke-linecap:butt;stroke-miterlimit:4;stroke-opacity:1;stroke-dasharray:none"
       transform="matrix(0.89506353,-0.44593865,0.89506353,0.44593865,0,0)" />
    <rect
       transform="matrix(0.89506353,-0.44593865,0.89506353,0.44593865,0,0)"
       style="fill:none;stroke:#3b7784;stroke-width:1.82446444;stroke-linecap:butt;stroke-miterlimit:4;stroke-opacity:1;stroke-dasharray:none"
       id="rect3849"
       width="77.125206"
       height="106.51173"
       x="-716.70966"
       y="1058.426" />
    <rect
       y="1060.6685"
       x="-718.95209"
       height="106.51173"
       width="77.125206"
       id="rect3851"
       style="fill:none;stroke:#3b7784;stroke-width:1.82446444;stroke-linecap:butt;stroke-miterlimit:4;stroke-opacity:1;stroke-dasharray:none"
       transform="matrix(0.89506353,-0.44593865,0.89506353,0.44593865,0,0)" />
    <rect
       transform="matrix(0.89506353,-0.44593865,0.89506353,0.44593865,0,0)"
       style="fill:none;stroke:#3b7784;stroke-width:1.82446444;stroke-linecap:butt;stroke-miterlimit:4;stroke-opacity:1;stroke-dasharray:none"
       id="rect3853"
       width="77.125206"
       height="106.51173"
       x="-721.19458"
       y="1062.9109" />
    <rect
       y="1065.1533"
       x="-723.43701"
       height="106.51173"
       width="77.125206"
       id="rect3855"
       style="fill:none;stroke:#3b7784;stroke-width:1.82446444;stroke-linecap:butt;stroke-miterlimit:4;stroke-opacity:1;stroke-dasharray:none"
       transform="matrix(0.89506353,-0.44593865,0.89506353,0.44593865,0,0)" />
    <rect
       transform="matrix(0.89506353,-0.44593865,0.89506353,0.44593865,0,0)"
       style="fill:none;stroke:#3b7784;stroke-width:1.82446444;stroke-linecap:butt;stroke-miterlimit:4;stroke-opacity:1;stroke-dasharray:none"
       id="rect3857"
       width="77.125206"
       height="106.51173"
       x="-725.6795"
       y="1067.3958" />
    <rect
       y="1067.3958"
       x="-725.6795"
       height="106.51173"
       width="77.125206"
       id="rect3859"
       style="fill:#c1d2db;fill-opacity:1;stroke:none"
       transform="matrix(0.89506353,-0.44593865,0.89506353,0.44593865,0,0)" />
    <path
       style="fill:#f0f3f5;fill-opacity:1;stroke:#3b7784;stroke-width:1.62508667;stroke-linecap:butt;stroke-miterlimit:4;stroke-opacity:1"
       d="m 310.13542,682.68727 -198.53125,98.90625 281.5,140.25 198.53125,-98.90625 -281.5,-140.25 z m 64.75,64.53125 95.34375,47.5 -69.03125,34.375 -95.34375,-47.5 69.03125,-34.375 z m -163.375,14.03125 c 14.76361,-0.18606 33.92956,4.24349 50.0625,12.28125 23.46609,11.69128 31.62795,26.60052 18.21875,33.28125 -13.4092,6.68073 -43.28391,2.59753 -66.75,-9.09375 -23.46609,-11.69128 -31.62795,-26.56927 -18.21875,-33.25 4.19037,-2.08773 9.97677,-3.13418 16.6875,-3.21875 z"
       id="rect2991"
       inkscape:connector-curvature="0" />
  </g>
</svg>
