<?xml version="1.0" encoding="UTF-8" standalone="no"?>
<!-- Generator: Adobe Illustrator 15.1.0, SVG Export Plug-In . SVG Version: 6.00 Build 0)  -->

<svg
   xmlns:dc="http://purl.org/dc/elements/1.1/"
   xmlns:cc="http://creativecommons.org/ns#"
   xmlns:rdf="http://www.w3.org/1999/02/22-rdf-syntax-ns#"
   xmlns:svg="http://www.w3.org/2000/svg"
   xmlns="http://www.w3.org/2000/svg"
   xmlns:sodipodi="http://sodipodi.sourceforge.net/DTD/sodipodi-0.dtd"
   xmlns:inkscape="http://www.inkscape.org/namespaces/inkscape"
   version="1.1"
   x="0px"
   y="0px"
   width="1920px"
   height="1080px"
   viewBox="0 0 1920 1080"
   enable-background="new 0 0 1920 1080"
   xml:space="preserve"
   id="svg3091"
   inkscape:version="0.48.4 r9939"
   sodipodi:docname="SVG-CAM-concept-sketch.svg"><metadata
   id="metadata3195"><rdf:RDF><cc:Work
       rdf:about=""><dc:format>image/svg+xml</dc:format><dc:type
         rdf:resource="http://purl.org/dc/dcmitype/StillImage" /></cc:Work></rdf:RDF></metadata><defs
   id="defs3193" /><sodipodi:namedview
   pagecolor="#ffffff"
   bordercolor="#666666"
   borderopacity="1"
   objecttolerance="10"
   gridtolerance="10"
   guidetolerance="10"
   inkscape:pageopacity="0"
   inkscape:pageshadow="2"
   inkscape:window-width="1920"
   inkscape:window-height="1028"
   id="namedview3191"
   showgrid="false"
   inkscape:zoom="0.63446243"
   inkscape:cx="885.65905"
   inkscape:cy="540"
   inkscape:window-x="-4"
   inkscape:window-y="-4"
   inkscape:window-maximized="1"
   inkscape:current-layer="svg3091" />
<g
   id="curves"
   transform="matrix(3.5451003,0,0,3.5451003,-2289.5277,-2419.723)"
   style="stroke-width:0.74610019;stroke-miterlimit:4;stroke-dasharray:none">
	<polygon
   points="1069.174,869.542 1069.174,855.368 1149.35,815.28 1149.35,829.454 "
   id="polygon3094"
   style="fill:none;stroke:#000000;stroke-linecap:round;stroke-linejoin:round;stroke-width:0.74610019;stroke-miterlimit:4;stroke-dasharray:none" />
	<polygon
   points="1069.174,855.368 988.998,815.28 988.998,829.454 1069.174,869.542 "
   id="polygon3096"
   style="fill:none;stroke:#000000;stroke-linecap:round;stroke-linejoin:round;stroke-width:0.74610019;stroke-miterlimit:4;stroke-dasharray:none" />
	<polyline
   points="988.998,829.454 1069.174,869.542    1149.35,829.454  "
   id="polyline3098"
   style="fill:none;stroke:#000000;stroke-linecap:round;stroke-linejoin:round;stroke-width:0.74610019;stroke-miterlimit:4;stroke-dasharray:none" />
	<path
   d="m 1034.344,821.451 c 8.823,-4.412 4.55,-10.911 -3.817,-13.185 -5.907,-1.605 -14.049,-1.4 -19.702,1.426 -8.823,4.412 -4.55,10.911 3.817,13.185 5.908,1.605 14.05,1.399 19.702,-1.426 z"
   id="path3100"
   inkscape:connector-curvature="0"
   style="fill:none;stroke:#000000;stroke-linecap:round;stroke-linejoin:round;stroke-width:0.74610019;stroke-miterlimit:4;stroke-dasharray:none" />
	<path
   d="m 1079.203,801.199 c 8.823,-4.411 4.55,-10.911 -3.817,-13.185 -5.907,-1.605 -14.05,-1.4 -19.702,1.426 -8.823,4.412 -4.55,10.911 3.817,13.185 5.907,1.605 14.049,1.4 19.702,-1.426 z"
   id="path3102"
   inkscape:connector-curvature="0"
   style="fill:none;stroke:#000000;stroke-linecap:round;stroke-linejoin:round;stroke-width:0.74610019;stroke-miterlimit:4;stroke-dasharray:none" />
	<polygon
   points="988.998,815.28 1069.174,855.368 1149.35,815.28 1069.174,775.192 "
   id="polygon3104"
   style="fill:none;stroke:#000000;stroke-linecap:round;stroke-linejoin:round;stroke-width:0.74610019;stroke-miterlimit:4;stroke-dasharray:none" />
	<path
   d="m 1092.898,827.886 c -4.566,3.348 -12.135,5.948 -20.44,6.921 -8.305,0.974 -17.346,0.321 -22.374,-1.617 -5.028,-1.938 -6.043,-5.161 -3.47,-6.084 2.574,-0.924 8.736,0.45 13.807,1.298 5.071,0.848 9.049,1.169 13.882,0.6 4.833,-0.569 10.52,-2.032 13.934,-5.185 3.415,-3.153 4.556,-7.998 4.277,-12.184 -0.279,-4.186 -1.979,-7.715 -1.146,-9.25 0.834,-1.536 4.202,-1.078 6.162,1.581 1.96,2.659 2.51,7.521 2.004,11.999 -0.506,4.478 -2.07,8.574 -6.636,11.921 z"
   id="path3106"
   inkscape:connector-curvature="0"
   style="fill:none;stroke:#000000;stroke-linecap:round;stroke-linejoin:round;stroke-width:0.74610019;stroke-miterlimit:4;stroke-dasharray:none" />
	<path
   d="m 1006.951,818.406 c 5.3,-7.307 25.968,-7.307 31.268,0 2.93,-4.04 -0.768,-7.285 -4.337,-8.937 -3.679,-1.703 -7.317,-2.213 -11.295,-2.213 -3.979,0 -7.619,0.51 -11.299,2.213 -3.57,1.653 -7.267,4.897 -4.337,8.937 z"
   id="path3108"
   inkscape:connector-curvature="0"
   style="fill:none;stroke:#000000;stroke-linecap:round;stroke-linejoin:round;stroke-width:0.74610019;stroke-miterlimit:4;stroke-dasharray:none" />
	<path
   d="m 1083.83,796.737 c 1.385,-4.004 -2.878,-6.629 -5.826,-7.841 -3.455,-1.42 -6.873,-1.892 -10.56,-1.892 -3.688,0 -7.105,0.471 -10.561,1.891 -2.949,1.212 -7.213,3.837 -5.828,7.841 3.184,-9.196 29.593,-9.196 32.775,10e-4 z"
   id="path3110"
   inkscape:connector-curvature="0"
   style="fill:none;stroke:#000000;stroke-linecap:round;stroke-linejoin:round;stroke-width:0.74610019;stroke-miterlimit:4;stroke-dasharray:none" />
	<path
   d="m 1092.542,813.56 c 0.157,4.065 -1.026,8.65 -4.304,11.676 -3.415,3.153 -9.101,4.615 -13.934,5.185 -4.833,0.57 -8.812,0.248 -13.882,-0.6 -5.07,-0.848 -11.233,-2.222 -13.807,-1.298 -0.611,0.22 -1.02,0.569 -1.221,1 -0.396,-1.062 0.025,-1.987 1.221,-2.417 2.574,-0.924 8.736,0.45 13.807,1.298 5.071,0.848 9.049,1.169 13.882,0.6 4.833,-0.569 10.52,-2.032 13.934,-5.185 2.901,-2.679 4.161,-6.58 4.304,-10.259 z"
   id="path3112"
   inkscape:connector-curvature="0"
   style="fill:none;stroke:#000000;stroke-linecap:round;stroke-linejoin:round;stroke-width:0.74610019;stroke-miterlimit:4;stroke-dasharray:none" />
	<path
   d="m 1099.703,813.549 c -0.086,-3.219 -0.767,-6.258 -2.172,-8.166 -1.959,-2.66 -5.328,-3.117 -6.162,-1.582 -0.078,0.144 -0.134,0.306 -0.171,0.483 -0.102,-0.791 -0.081,-1.437 0.171,-1.9 0.834,-1.536 4.202,-1.078 6.162,1.581 1.61,2.186 2.269,5.859 2.172,9.584 z"
   id="path3114"
   inkscape:connector-curvature="0"
   style="fill:none;stroke:#000000;stroke-linecap:round;stroke-linejoin:round;stroke-width:0.74610019;stroke-miterlimit:4;stroke-dasharray:none" />
	<path
   d="m 1045.394,829.522 c 0.201,-0.431 0.609,-0.78 1.221,-1 2.574,-0.924 8.736,0.45 13.807,1.298 5.071,0.848 9.049,1.17 13.882,0.6 4.833,-0.57 10.52,-2.032 13.934,-5.185 3.277,-3.026 4.461,-7.611 4.304,-11.676 0.025,-0.651 0.015,-1.295 -0.027,-1.925 -0.195,-2.921 -1.082,-5.522 -1.316,-7.35 0.037,-0.178 0.093,-0.339 0.171,-0.483 0.834,-1.535 4.202,-1.078 6.162,1.582 1.405,1.907 2.086,4.947 2.172,8.166 -0.021,0.808 -0.078,1.618 -0.168,2.416 -0.506,4.479 -2.07,8.574 -6.637,11.921 -4.567,3.347 -12.135,5.948 -20.44,6.921 -8.305,0.974 -17.346,0.321 -22.374,-1.617 -2.693,-1.038 -4.235,-2.444 -4.691,-3.668 z"
   id="path3116"
   inkscape:connector-curvature="0"
   style="fill:none;stroke:#000000;stroke-linecap:round;stroke-linejoin:round;stroke-width:0.74610019;stroke-miterlimit:4;stroke-dasharray:none" />
	<path
   d="m 1051.057,796.737 c 1.62,4.683 9.317,6.352 13.1,6.733 4.761,0.48 10.629,-0.063 15.046,-2.271 1.786,-0.893 3.905,-2.375 4.627,-4.462 -3.182,-9.197 -29.591,-9.197 -32.773,0 z"
   id="path3118"
   inkscape:connector-curvature="0"
   style="fill:none;stroke:#000000;stroke-linecap:round;stroke-linejoin:round;stroke-width:0.74610019;stroke-miterlimit:4;stroke-dasharray:none" />
	<path
   d="m 1038.218,818.406 c -5.299,-7.307 -25.968,-7.307 -31.268,0 2.707,3.732 9.207,5.089 13.148,5.387 4.542,0.343 10.048,-0.244 14.245,-2.342 1.529,-0.764 2.839,-1.616 3.875,-3.045 z"
   id="path3120"
   inkscape:connector-curvature="0"
   style="fill:none;stroke:#000000;stroke-linecap:round;stroke-linejoin:round;stroke-width:0.74610019;stroke-miterlimit:4;stroke-dasharray:none" />
	
		<rect
   x="730.96899"
   y="771.40198"
   width="113.386"
   height="113.386"
   id="rect3122"
   style="fill:none;stroke:#000000;stroke-linecap:round;stroke-linejoin:round;stroke-width:0.74610019;stroke-miterlimit:4;stroke-dasharray:none" />
	<circle
   cx="814.66803"
   cy="798.64203"
   r="16.629999"
   id="circle3124"
   d="m 831.29803,798.64203 c 0,9.18449 -7.44551,16.63 -16.63,16.63 -9.1845,0 -16.63,-7.44551 -16.63,-16.63 0,-9.1845 7.4455,-16.63 16.63,-16.63 9.18449,0 16.63,7.4455 16.63,16.63 z"
   sodipodi:cx="814.66803"
   sodipodi:cy="798.64203"
   sodipodi:rx="16.629999"
   sodipodi:ry="16.629999"
   style="fill:none;stroke:#000000;stroke-linecap:round;stroke-linejoin:round;stroke-width:0.74610019;stroke-miterlimit:4;stroke-dasharray:none" />
	<circle
   cx="754.30798"
   cy="795.56299"
   r="16.629999"
   id="circle3126"
   d="m 770.93798,795.56299 c 0,9.18449 -7.4455,16.63 -16.63,16.63 -9.18449,0 -16.63,-7.44551 -16.63,-16.63 0,-9.1845 7.44551,-16.63 16.63,-16.63 9.1845,0 16.63,7.4455 16.63,16.63 z"
   sodipodi:cx="754.30798"
   sodipodi:cy="795.56299"
   sodipodi:rx="16.629999"
   sodipodi:ry="16.629999"
   style="fill:none;stroke:#000000;stroke-linecap:round;stroke-linejoin:round;stroke-width:0.74610019;stroke-miterlimit:4;stroke-dasharray:none" />
	<path
   d="m 786.61,862.698 c -7.963,1.505 -16.992,-0.169 -24.241,-4.665 -7.25,-4.496 -12.719,-11.812 -13.534,-18.108 -0.815,-6.296 3.024,-11.572 6.151,-11.059 3.126,0.513 5.541,6.814 7.927,11.599 2.386,4.785 4.745,8.053 8.968,10.665 4.224,2.611 10.312,4.565 17.185,2.521 6.874,-2.045 14.532,-8.088 20.255,-14.207 5.723,-6.118 9.511,-12.31 12.272,-13.892 2.761,-1.582 4.496,1.447 2.121,6.593 -2.375,5.147 -8.861,12.412 -15.552,18.387 -6.691,5.975 -13.588,10.66 -21.552,12.166 z"
   id="path3128"
   inkscape:connector-curvature="0"
   style="fill:none;stroke:#000000;stroke-linecap:round;stroke-linejoin:round;stroke-width:0.74610019;stroke-miterlimit:4;stroke-dasharray:none" />
</g>
<g
   id="pocket_sides"
   transform="matrix(3.5451003,0,0,3.5451003,-2289.5277,-2419.723)"
   style="stroke:#000000;stroke-opacity:1;stroke-width:0.74610019;stroke-miterlimit:4;stroke-dasharray:none">
	<path
   d="m 1006.951,818.406 c -2.454,-3.384 -0.031,-6.465 2.982,-8.231 3.048,-1.786 6.167,-2.457 9.601,-2.777 5.105,-0.476 15.014,0.275 18.686,5.341 1.057,1.458 1.366,2.682 0.688,4.423 -0.149,0.382 -0.34,0.734 -0.57,1.074 -0.289,0.427 -0.646,-0.477 -0.83,-0.663 -0.681,-0.692 -1.439,-1.24 -2.272,-1.728 -3.048,-1.786 -6.167,-2.457 -9.601,-2.777 -5.105,-0.478 -15.011,0.273 -18.684,5.338 z"
   id="path3131"
   inkscape:connector-curvature="0"
   style="fill:#909090;stroke:#000000;stroke-opacity:1;stroke-width:0.74610019;stroke-miterlimit:4;stroke-dasharray:none" />
	<path
   d="m 1083.83,796.737 c -1.103,-3.187 -5.167,-4.919 -7.871,-5.725 -3.301,-0.984 -6.54,-1.291 -9.961,-1.141 -3.432,0.149 -6.607,0.698 -9.776,2.147 -1.736,0.793 -3.223,1.677 -4.396,3.279 -0.237,0.324 -0.439,0.66 -0.604,1.026 -0.051,0.113 -0.132,0.524 -0.204,0.296 -0.056,-0.178 -0.101,-0.357 -0.135,-0.54 -0.14,-0.763 -0.079,-1.444 0.173,-2.175 1.102,-3.188 5.167,-4.92 7.872,-5.727 3.301,-0.984 6.54,-1.291 9.961,-1.142 3.432,0.15 6.607,0.698 9.776,2.147 2.699,1.235 6.426,3.91 5.165,7.555 z"
   id="path3133"
   inkscape:connector-curvature="0"
   style="fill:#909090;stroke:#000000;stroke-opacity:1;stroke-width:0.74610019;stroke-miterlimit:4;stroke-dasharray:none" />
	<path
   d="m 1092.542,813.56 c 0.157,4.065 -1.026,8.65 -4.304,11.676 -3.415,3.153 -9.101,4.615 -13.934,5.185 -4.833,0.57 -8.812,0.248 -13.882,-0.6 -5.07,-0.848 -11.233,-2.222 -13.807,-1.298 -0.611,0.22 -1.02,0.569 -1.221,1 -0.396,-1.062 0.025,-1.987 1.221,-2.417 2.574,-0.924 8.736,0.45 13.807,1.298 5.071,0.848 9.049,1.169 13.882,0.6 4.833,-0.569 10.52,-2.032 13.934,-5.185 2.901,-2.679 4.161,-6.58 4.304,-10.259 z"
   id="path3135"
   inkscape:connector-curvature="0"
   style="fill:#909090;stroke:#000000;stroke-opacity:1;stroke-width:0.74610019;stroke-miterlimit:4;stroke-dasharray:none" />
	<path
   d="m 1099.703,813.549 c -0.086,-3.219 -0.767,-6.258 -2.172,-8.166 -1.959,-2.66 -5.328,-3.117 -6.162,-1.582 -0.078,0.144 -0.134,0.306 -0.171,0.483 -0.102,-0.791 -0.081,-1.437 0.171,-1.9 0.834,-1.536 4.202,-1.078 6.162,1.581 1.61,2.186 2.269,5.859 2.172,9.584 z"
   id="path3137"
   inkscape:connector-curvature="0"
   style="fill:#909090;stroke:#000000;stroke-opacity:1;stroke-width:0.74610019;stroke-miterlimit:4;stroke-dasharray:none" />
</g>
<g
   id="side1"
   transform="matrix(3.5451003,0,0,3.5451003,-2289.5277,-2419.723)"
   style="stroke:#000000;stroke-opacity:1;stroke-width:0.74610019;stroke-miterlimit:4;stroke-dasharray:none">
	<polygon
   points="1069.174,869.542 1069.174,855.368 1149.35,815.28 1149.35,829.454 "
   id="polygon3140"
   style="fill:#6b6b6b;stroke:#000000;stroke-opacity:1;stroke-width:0.74610019;stroke-miterlimit:4;stroke-dasharray:none" />
</g>
<g
   id="pocket_bottom_0.5"
   transform="matrix(3.5451003,0,0,3.5451003,-2289.5277,-2419.723)"
   style="stroke:#000000;stroke-opacity:1;stroke-width:0.74610019;stroke-miterlimit:4;stroke-dasharray:none">
	<path
   d="m 1051.057,796.737 c 1.962,-5.671 11.941,-6.897 16.385,-6.898 3.173,0 6.176,0.383 9.207,1.39 1.647,0.547 3.164,1.226 4.575,2.27 0.603,0.446 1.144,0.933 1.62,1.516 0.12,0.146 1.082,1.449 0.987,1.722 -3.183,9.197 -29.592,9.197 -32.774,0 z"
   id="path3143"
   inkscape:connector-curvature="0"
   style="fill:#b2b2b2;stroke:#000000;stroke-opacity:1;stroke-width:0.74610019;stroke-miterlimit:4;stroke-dasharray:none" />
	<path
   d="m 1038.218,818.406 c -3.141,4.33 -11.152,5.48 -15.632,5.48 -2.89,0 -5.653,-0.33 -8.438,-1.149 -1.5,-0.442 -2.915,-1 -4.268,-1.8 -0.585,-0.346 -1.136,-0.728 -1.654,-1.17 -0.243,-0.208 -0.474,-0.426 -0.693,-0.659 -0.106,-0.112 -0.208,-0.228 -0.306,-0.346 -0.048,-0.059 -0.096,-0.117 -0.142,-0.177 -0.046,-0.059 -0.219,-0.063 -0.135,-0.179 5.3,-7.307 25.969,-7.307 31.268,0 z"
   id="path3145"
   inkscape:connector-curvature="0"
   style="fill:#b2b2b2;stroke:#000000;stroke-opacity:1;stroke-width:0.74610019;stroke-miterlimit:4;stroke-dasharray:none" />
	<path
   d="m 1045.394,829.522 c 0.201,-0.431 0.609,-0.78 1.221,-1 2.574,-0.924 8.736,0.45 13.807,1.298 5.071,0.848 9.049,1.17 13.882,0.6 4.833,-0.57 10.52,-2.032 13.934,-5.185 3.277,-3.026 4.461,-7.611 4.304,-11.676 0.025,-0.651 0.015,-1.295 -0.027,-1.925 -0.195,-2.921 -1.082,-5.522 -1.316,-7.35 0.037,-0.178 0.093,-0.339 0.171,-0.483 0.834,-1.535 4.202,-1.078 6.162,1.582 1.405,1.907 2.086,4.947 2.172,8.166 -0.021,0.808 -0.078,1.618 -0.168,2.416 -0.506,4.479 -2.07,8.574 -6.637,11.921 -4.567,3.347 -12.135,5.948 -20.44,6.921 -8.305,0.974 -17.346,0.321 -22.374,-1.617 -2.693,-1.038 -4.235,-2.444 -4.691,-3.668 z"
   id="path3147"
   inkscape:connector-curvature="0"
   style="fill:#b2b2b2;stroke:#000000;stroke-opacity:1;stroke-width:0.74610019;stroke-miterlimit:4;stroke-dasharray:none" />
</g>
<g
   id="side2"
   transform="matrix(3.5451003,0,0,3.5451003,-2289.5277,-2419.723)"
   style="stroke:#000000;stroke-opacity:1;stroke-width:0.74610019;stroke-miterlimit:4;stroke-dasharray:none">
	<polygon
   points="988.998,829.454 988.998,815.28 1069.174,855.368 1069.174,869.542 "
   id="polygon3150"
   style="fill:#969696;stroke:#000000;stroke-opacity:1;stroke-width:0.74610019;stroke-miterlimit:4;stroke-dasharray:none" />
</g>
<g
   id="top"
   transform="matrix(3.5451003,0,0,3.5451003,-2289.5277,-2419.723)"
   style="stroke:#000000;stroke-opacity:1;stroke-width:0.74610019;stroke-miterlimit:4;stroke-dasharray:none">
	<path
   d="m 1069.174,855.368 -80.176,-40.088 80.176,-40.088 80.176,40.088 -80.176,40.088 z m 23.724,-27.482 c 4.566,-3.348 6.13,-7.443 6.637,-11.921 0.506,-4.478 -0.044,-9.34 -2.004,-11.999 -1.96,-2.659 -5.328,-3.117 -6.162,-1.581 -0.834,1.535 0.866,5.064 1.146,9.25 0.279,4.187 -0.862,9.031 -4.277,12.184 -3.415,3.153 -9.101,4.615 -13.934,5.185 -4.833,0.57 -8.812,0.248 -13.882,-0.6 -5.071,-0.848 -11.233,-2.223 -13.807,-1.298 -2.574,0.924 -1.558,4.146 3.47,6.084 5.028,1.938 14.069,2.591 22.374,1.617 8.304,-0.973 15.873,-3.573 20.439,-6.921 z m -13.695,-26.687 c 8.823,-4.411 4.55,-10.911 -3.817,-13.185 -5.907,-1.605 -14.05,-1.4 -19.702,1.426 -8.823,4.412 -4.55,10.911 3.817,13.185 5.907,1.605 14.049,1.4 19.702,-1.426 z m -44.859,20.252 c 8.823,-4.412 4.55,-10.911 -3.817,-13.185 -5.907,-1.605 -14.049,-1.4 -19.702,1.426 -8.823,4.412 -4.55,10.911 3.817,13.185 5.908,1.605 14.05,1.399 19.702,-1.426 z"
   id="path3153"
   inkscape:connector-curvature="0"
   style="fill:#e3e3e3;stroke:#000000;stroke-opacity:1;stroke-width:0.74610019;stroke-miterlimit:4;stroke-dasharray:none" />
</g>
<g
   id="toolpath_pocket"
   transform="matrix(3.5451003,0,0,3.5451003,-2289.5277,-2419.723)"
   style="stroke-width:0.74610019;stroke-miterlimit:4;stroke-dasharray:none">
	<circle
   cx="754.30798"
   cy="795.56299"
   r="2.457"
   id="circle3156"
   d="m 756.76498,795.56299 c 0,1.35696 -1.10003,2.457 -2.457,2.457 -1.35696,0 -2.457,-1.10004 -2.457,-2.457 0,-1.35697 1.10004,-2.457 2.457,-2.457 1.35697,0 2.457,1.10003 2.457,2.457 z"
   sodipodi:cx="754.30798"
   sodipodi:cy="795.56299"
   sodipodi:rx="2.457"
   sodipodi:ry="2.457"
   style="fill:none;stroke:#ff79fc;stroke-linecap:round;stroke-linejoin:round;stroke-width:0.74610019;stroke-miterlimit:4;stroke-dasharray:none" />
	<circle
   cx="754.30798"
   cy="795.56299"
   r="5.2919998"
   id="circle3158"
   d="m 759.59998,795.56299 c 0,2.92269 -2.36931,5.292 -5.292,5.292 -2.92269,0 -5.292,-2.36931 -5.292,-5.292 0,-2.92269 2.36931,-5.292 5.292,-5.292 2.92269,0 5.292,2.36931 5.292,5.292 z"
   sodipodi:cx="754.30798"
   sodipodi:cy="795.56299"
   sodipodi:rx="5.2919998"
   sodipodi:ry="5.2919998"
   style="fill:none;stroke:#ff79fc;stroke-linecap:round;stroke-linejoin:round;stroke-width:0.74610019;stroke-miterlimit:4;stroke-dasharray:none" />
	<circle
   cx="754.30798"
   cy="795.56299"
   r="8.1260004"
   id="circle3160"
   d="m 762.43398,795.56299 c 0,4.48786 -3.63813,8.126 -8.126,8.126 -4.48786,0 -8.126,-3.63814 -8.126,-8.126 0,-4.48787 3.63814,-8.126 8.126,-8.126 4.48787,0 8.126,3.63813 8.126,8.126 z"
   sodipodi:cx="754.30798"
   sodipodi:cy="795.56299"
   sodipodi:rx="8.1260004"
   sodipodi:ry="8.1260004"
   style="fill:none;stroke:#ff79fc;stroke-linecap:round;stroke-linejoin:round;stroke-width:0.74610019;stroke-miterlimit:4;stroke-dasharray:none" />
	<circle
   cx="754.30798"
   cy="795.56299"
   r="10.96"
   id="circle3162"
   d="m 765.26798,795.56299 c 0,6.05304 -4.90696,10.96 -10.96,10.96 -6.05304,0 -10.96,-4.90696 -10.96,-10.96 0,-6.05304 4.90696,-10.96 10.96,-10.96 6.05304,0 10.96,4.90696 10.96,10.96 z"
   sodipodi:cx="754.30798"
   sodipodi:cy="795.56299"
   sodipodi:rx="10.96"
   sodipodi:ry="10.96"
   style="fill:none;stroke:#ff79fc;stroke-linecap:round;stroke-linejoin:round;stroke-width:0.74610019;stroke-miterlimit:4;stroke-dasharray:none" />
	<path
   d="m 764.838,852.884 c -0.476,-0.31 -0.941,-0.634 -1.397,-0.972 -0.665,-0.494 -1.308,-1.016 -1.928,-1.565 -0.605,-0.537 -1.189,-1.099 -1.747,-1.685 -0.545,-0.572 -1.066,-1.168 -1.559,-1.786 -0.463,-0.581 -0.9,-1.183 -1.308,-1.804 -0.456,-0.696 -0.875,-1.418 -1.24,-2.166 -0.264,-0.541 -0.5,-1.096 -0.698,-1.665 -0.17,-0.49 -0.312,-0.99 -0.412,-1.499 -0.05,-0.256 -0.09,-0.514 -0.116,-0.773 -0.038,-0.38 -0.047,-0.762 -0.028,-1.143 0.024,-0.474 0.092,-0.945 0.208,-1.405 0.189,0.345 0.371,0.693 0.549,1.043 0.395,0.773 0.771,1.556 1.144,2.34 0.449,0.944 0.893,1.89 1.355,2.828 0.43,0.872 0.874,1.736 1.345,2.585 0.465,0.839 0.956,1.664 1.481,2.466 0.525,0.803 1.084,1.583 1.683,2.333 0.607,0.76 1.256,1.488 1.945,2.175 0.236,0.235 0.477,0.466 0.723,0.693 z"
   id="path3164"
   inkscape:connector-curvature="0"
   style="fill:none;stroke:#ff79fc;stroke-linecap:round;stroke-linejoin:round;stroke-width:0.74610019;stroke-miterlimit:4;stroke-dasharray:none" />
	<circle
   cx="814.66803"
   cy="798.64203"
   r="10.96"
   id="circle3166"
   d="m 825.62803,798.64203 c 0,6.05304 -4.90696,10.96 -10.96,10.96 -6.05304,0 -10.96,-4.90696 -10.96,-10.96 0,-6.05304 4.90696,-10.96 10.96,-10.96 6.05304,0 10.96,4.90696 10.96,10.96 z"
   sodipodi:cx="814.66803"
   sodipodi:cy="798.64203"
   sodipodi:rx="10.96"
   sodipodi:ry="10.96"
   style="fill:none;stroke:#ff79fc;stroke-linecap:round;stroke-linejoin:round;stroke-width:0.74610019;stroke-miterlimit:4;stroke-dasharray:none" />
	<circle
   cx="814.66803"
   cy="798.64203"
   r="8.1260004"
   id="circle3168"
   d="m 822.79403,798.64203 c 0,4.48786 -3.63813,8.126 -8.126,8.126 -4.48787,0 -8.126,-3.63814 -8.126,-8.126 0,-4.48787 3.63813,-8.126 8.126,-8.126 4.48787,0 8.126,3.63813 8.126,8.126 z"
   sodipodi:cx="814.66803"
   sodipodi:cy="798.64203"
   sodipodi:rx="8.1260004"
   sodipodi:ry="8.1260004"
   style="fill:none;stroke:#ff79fc;stroke-linecap:round;stroke-linejoin:round;stroke-width:0.74610019;stroke-miterlimit:4;stroke-dasharray:none" />
	<circle
   cx="814.66803"
   cy="798.64203"
   r="13.795"
   id="circle3170"
   d="m 828.46303,798.64203 c 0,7.61877 -6.17623,13.795 -13.795,13.795 -7.61877,0 -13.795,-6.17623 -13.795,-13.795 0,-7.61877 6.17623,-13.795 13.795,-13.795 7.61877,0 13.795,6.17623 13.795,13.795 z"
   sodipodi:cx="814.66803"
   sodipodi:cy="798.64203"
   sodipodi:rx="13.795"
   sodipodi:ry="13.795"
   style="fill:none;stroke:#ff79fc;stroke-linecap:round;stroke-linejoin:round;stroke-width:0.74610019;stroke-miterlimit:4;stroke-dasharray:none" />
	<circle
   cx="754.30798"
   cy="795.56299"
   r="13.795"
   id="circle3172"
   d="m 768.10298,795.56299 c 0,7.61877 -6.17623,13.795 -13.795,13.795 -7.61876,0 -13.795,-6.17623 -13.795,-13.795 0,-7.61877 6.17624,-13.795 13.795,-13.795 7.61877,0 13.795,6.17623 13.795,13.795 z"
   sodipodi:cx="754.30798"
   sodipodi:cy="795.56299"
   sodipodi:rx="13.795"
   sodipodi:ry="13.795"
   style="fill:none;stroke:#ff79fc;stroke-linecap:round;stroke-linejoin:round;stroke-width:0.74610019;stroke-miterlimit:4;stroke-dasharray:none" />
	<path
   d="m 786.084,859.913 c -1.372,0.259 -2.763,0.411 -4.158,0.465 -1.432,0.056 -2.868,0.01 -4.293,-0.131 -1.451,-0.144 -2.892,-0.386 -4.311,-0.722 -1.429,-0.339 -2.836,-0.774 -4.208,-1.301 -1.37,-0.527 -2.706,-1.146 -3.989,-1.86 -0.852,-0.473 -1.682,-0.988 -2.484,-1.541 -1.2,-0.826 -2.34,-1.737 -3.413,-2.721 -1.043,-0.957 -2.022,-1.982 -2.923,-3.073 -0.846,-1.025 -1.624,-2.108 -2.306,-3.25 -0.317,-0.531 -0.615,-1.074 -0.886,-1.63 -0.255,-0.522 -0.487,-1.055 -0.691,-1.599 -0.189,-0.504 -0.354,-1.018 -0.489,-1.539 -0.124,-0.478 -0.221,-0.962 -0.285,-1.452 -0.107,-0.829 -0.116,-1.672 -0.023,-2.503 0.084,-0.751 0.251,-1.493 0.505,-2.205 0.114,-0.32 0.246,-0.634 0.396,-0.939 0.093,-0.188 0.193,-0.371 0.3,-0.55 0.145,-0.24 0.303,-0.472 0.479,-0.691 0.146,-0.182 0.302,-0.355 0.473,-0.513 0.128,-0.119 0.264,-0.229 0.41,-0.322 0.081,-0.052 0.165,-0.099 0.254,-0.134 0.031,-0.013 0.063,-0.024 0.097,-0.032 0.028,0.013 0.055,0.028 0.081,0.044 0.049,0.03 0.096,0.063 0.141,0.098 0.061,0.046 0.119,0.096 0.176,0.147 0.071,0.064 0.14,0.132 0.207,0.201 0.172,0.178 0.331,0.368 0.482,0.564 0.188,0.244 0.366,0.497 0.535,0.754 0.196,0.298 0.383,0.604 0.563,0.912 0.341,0.584 0.659,1.182 0.966,1.785 0.406,0.796 0.794,1.602 1.178,2.409 0.443,0.932 0.882,1.867 1.338,2.792 0.409,0.831 0.833,1.654 1.281,2.464 0.432,0.778 0.887,1.544 1.375,2.289 0.476,0.728 0.982,1.435 1.525,2.114 0.542,0.678 1.12,1.327 1.734,1.94 0.626,0.625 1.289,1.212 1.984,1.759 0.725,0.571 1.485,1.098 2.27,1.584 0.838,0.52 1.706,0.993 2.597,1.417 0.952,0.453 1.932,0.848 2.933,1.18 1.063,0.352 2.148,0.632 3.25,0.834 1.166,0.213 2.348,0.338 3.532,0.37 1.257,0.034 2.518,-0.038 3.764,-0.212 0.656,-0.092 1.309,-0.213 1.955,-0.361 0.666,-0.152 1.325,-0.334 1.976,-0.542 1.355,-0.434 2.673,-0.981 3.953,-1.604 0.664,-0.322 1.316,-0.664 1.96,-1.023 0.657,-0.366 1.303,-0.75 1.941,-1.149 1.563,-0.977 3.07,-2.042 4.529,-3.168 1.234,-0.953 2.435,-1.95 3.601,-2.985 1.147,-1.018 2.262,-2.071 3.345,-3.157 0.81,-0.813 1.601,-1.643 2.373,-2.49 0.485,-0.532 0.963,-1.071 1.435,-1.616 0.883,-1.019 1.744,-2.057 2.593,-3.104 0.391,-0.482 0.779,-0.967 1.166,-1.453 0.459,-0.576 0.916,-1.153 1.375,-1.728 0.328,-0.41 0.656,-0.819 0.988,-1.226 0.296,-0.363 0.595,-0.723 0.898,-1.08 0.328,-0.384 0.661,-0.764 1.008,-1.13 0.099,-0.104 0.199,-0.208 0.301,-0.311 -0.073,0.308 -0.165,0.61 -0.27,0.908 -0.127,0.36 -0.273,0.714 -0.433,1.061 -0.132,0.286 -0.273,0.567 -0.421,0.844 -0.165,0.31 -0.338,0.616 -0.518,0.917 -0.407,0.686 -0.846,1.353 -1.302,2.006 -0.517,0.74 -1.058,1.463 -1.615,2.173 -0.608,0.775 -1.236,1.534 -1.877,2.281 -0.681,0.793 -1.378,1.572 -2.089,2.338 -0.737,0.795 -1.488,1.578 -2.251,2.348 -1.55,1.566 -3.149,3.083 -4.793,4.551 -0.804,0.718 -1.618,1.423 -2.446,2.112 -0.804,0.669 -1.621,1.322 -2.454,1.956 -0.808,0.614 -1.629,1.21 -2.468,1.781 -0.813,0.554 -1.642,1.084 -2.489,1.586 -0.822,0.487 -1.661,0.947 -2.516,1.373 -0.835,0.416 -1.687,0.799 -2.554,1.144 -0.853,0.339 -1.721,0.641 -2.601,0.9 -0.88,0.26 -1.769,0.476 -2.667,0.646 z"
   id="path3174"
   inkscape:connector-curvature="0"
   style="fill:none;stroke:#ff79fc;stroke-linecap:round;stroke-linejoin:round;stroke-width:0.74610019;stroke-miterlimit:4;stroke-dasharray:none" />
	<circle
   cx="814.66803"
   cy="798.64203"
   r="5.2919998"
   id="circle3176"
   d="m 819.96003,798.64203 c 0,2.92269 -2.36931,5.292 -5.292,5.292 -2.92269,0 -5.292,-2.36931 -5.292,-5.292 0,-2.92269 2.36931,-5.292 5.292,-5.292 2.92269,0 5.292,2.36931 5.292,5.292 z"
   sodipodi:cx="814.66803"
   sodipodi:cy="798.64203"
   sodipodi:rx="5.2919998"
   sodipodi:ry="5.2919998"
   style="fill:none;stroke:#ff79fc;stroke-linecap:round;stroke-linejoin:round;stroke-width:0.74610019;stroke-miterlimit:4;stroke-dasharray:none" />
	<circle
   cx="814.66803"
   cy="798.64203"
   r="2.457"
   id="circle3178"
   d="m 817.12503,798.64203 c 0,1.35696 -1.10004,2.457 -2.457,2.457 -1.35696,0 -2.457,-1.10004 -2.457,-2.457 0,-1.35696 1.10004,-2.457 2.457,-2.457 1.35696,0 2.457,1.10004 2.457,2.457 z"
   sodipodi:cx="814.66803"
   sodipodi:cy="798.64203"
   sodipodi:rx="2.457"
   sodipodi:ry="2.457"
   style="fill:none;stroke:#ff79fc;stroke-linecap:round;stroke-linejoin:round;stroke-width:0.74610019;stroke-miterlimit:4;stroke-dasharray:none" />
</g>
<g
   id="toolpath_cutout"
   transform="matrix(3.5451003,0,0,3.5451003,-2289.5277,-2419.723)"
   style="stroke-width:0.74610019;stroke-miterlimit:4;stroke-dasharray:none">
	<path
   d="m 730.969,887.623 c 37.796,0 75.591,0 113.386,0 1.565,0 2.834,-1.269 2.834,-2.834 0,-37.795 0,-75.591 0,-113.386 0,-1.565 -1.269,-2.835 -2.834,-2.835 -37.795,0 -75.59,0 -113.386,0 -1.565,0 -2.834,1.27 -2.834,2.835 0,37.795 0,75.59 0,113.386 0,1.565 1.269,2.834 2.834,2.834 z"
   id="path3181"
   inkscape:connector-curvature="0"
   style="fill:none;stroke:#00f5ff;stroke-linecap:round;stroke-linejoin:round;stroke-width:0.74610019;stroke-miterlimit:4;stroke-dasharray:none" />
</g>
<g
   id="stock"
   transform="matrix(3.5451003,0,0,3.5451003,-2289.5277,-2419.723)"
   style="stroke-width:0.74610019000000005;stroke-miterlimit:4;stroke-dasharray:none;stroke:#b9b9b9;stroke-opacity:1">
	
		<rect
   x="691.52399"
   y="750.52502"
   width="226.741"
   height="155.14101"
   id="rect3184"
   style="fill:none;stroke:#b9b9b9;stroke-linecap:round;stroke-linejoin:round;stroke-width:0.74610019000000005;stroke-miterlimit:4;stroke-dasharray:none;stroke-opacity:1" />
</g>

<text
   xml:space="preserve"
   style="font-size:24px;font-style:normal;font-variant:normal;font-weight:bold;font-stretch:normal;text-align:start;line-height:125%;letter-spacing:0px;word-spacing:0px;text-anchor:start;fill:#000000;fill-opacity:1;stroke:none;font-family:Arial;-inkscape-font-specification:Arial Bold"
   x="95.654587"
   y="879.83057"
   id="text4029"
   sodipodi:linespacing="125%"><tspan
     sodipodi:role="line"
     id="tspan4031"
     x="95.654587"
     y="879.83057">X: 0</tspan></text>
<text
   sodipodi:linespacing="125%"
   id="text4033"
   y="845.89648"
   x="39.839825"
   style="font-size:24px;font-style:normal;font-variant:normal;font-weight:bold;font-stretch:normal;text-align:start;line-height:125%;letter-spacing:0px;word-spacing:0px;text-anchor:start;fill:#000000;fill-opacity:1;stroke:none;font-family:Arial;-inkscape-font-specification:Arial Bold"
   xml:space="preserve"><tspan
     y="845.89648"
     x="39.839825"
     id="tspan4035"
     sodipodi:role="line">Y: 0</tspan></text>
<path
   style="fill:none;stroke:#000000;stroke-width:1px;stroke-linecap:butt;stroke-linejoin:miter;stroke-opacity:1"
   d="m 89.839834,753.73955 0,137.12396"
   id="path4037"
   inkscape:connector-curvature="0" /><path
   inkscape:connector-curvature="0"
   id="path4039"
   d="m 193.07683,855.40042 -137.123952,0"
   style="fill:none;stroke:#000000;stroke-width:1px;stroke-linecap:butt;stroke-linejoin:miter;stroke-opacity:1" /></svg>